# xmcd
#
# Track frame offsets: 
#        150
#        24153
#        38010
#        52748
#        70808
#        90260
#        106948
#        127583
#        149025
#        162920
#        180700
#
# Disc length: 2679 seconds
#
# Revision: 1
# Processed by: cddbd v1.4PL0 Copyright (c) Steve Scherf et al.
# Submitted via: ExactAudioCopy v0.90b4
#
DISCID=7e0a750b
DTITLE=Ronnie Milsap - 35 All-Time #1 Hits! (Country Collection) - Dis
DTITLE=c 3
DYEAR=2001
DGENRE=Country
TTITLE0=Still Losing You
TTITLE1=Don't You Ever Get Tired (Of Hurting Me)
TTITLE2=A Woman In Love
TTITLE3=She Keeps The Home Fires Burning
TTITLE4=Lost In The Fifties Tonight (In The Still Of The Night)
TTITLE5=Happy, Happy Birthday Baby
TTITLE6=In Love
TTITLE7=How Do I Turn You On
TTITLE8=Snap Your Fingers
TTITLE9=Make No Mistake, She's Mine
TTITLE10=Where Do The Nights Go
EXTD=
EXTT0=
EXTT1=
EXTT2=
EXTT3=
EXTT4=
EXTT5=
EXTT6=
EXTT7=
EXTT8=
EXTT9=
EXTT10=
PLAYORDER=
